<?xml version="1.0" encoding="UTF-8" standalone="no"?><!DOCTYPE svg PUBLIC "-//W3C//DTD SVG 1.1//EN" "http://www.w3.org/Graphics/SVG/1.1/DTD/svg11.dtd"><svg width="100%" height="100%" viewBox="0 0 2250 2250" version="1.1" xmlns="http://www.w3.org/2000/svg" xmlns:xlink="http://www.w3.org/1999/xlink" xml:space="preserve" xmlns:serif="http://www.serif.com/" style="fill-rule:evenodd;clip-rule:evenodd;stroke-linecap:round;stroke-linejoin:round;stroke-miterlimit:1.5;"><g><path d="M358.164,391.211c39.123,-23.303 89.247,-15.64 89.247,-15.64c-0,-0 1095.35,-2.709 1354.78,-3.902c43.53,-0.2 64.433,-10.718 78.564,-27.767c18.146,-21.892 22.62,-54.552 22.919,-89.958c0.664,-78.704 -74.24,-108.199 -118.656,-108.918c-215.306,-3.482 -1137.51,-8.412 -1137.51,-8.412" style="fill:none;stroke:#d1c786;stroke-width:51.2px;"/><g><g><path d="M567.52,292.406l1249.2,-0" style="fill:none;stroke:#646f53;stroke-width:20.83px;"/><path d="M497.77,354.936c-0,0 -94.523,-2.507 -123.099,6.764c-39.891,12.942 -48.698,75.3 -48.698,75.3" style="fill:none;stroke:#646f53;stroke-width:20.83px;"/><path d="M496.336,354.936c-0,0 1075.96,-0.258 1306.52,-11.034c35.215,-1.646 102.812,-23.561 66.064,-121.908c-16.493,-44.14 -71.294,-58.993 -132.743,-59.615c-207.136,-2.097 -912.174,-12.888 -1106.94,-8.303c-32.205,0.758 -34.717,99.203 -34.717,99.203l-98.187,101.657Z" style="fill:#d8dda8;stroke:#646f53;stroke-width:20.83px;"/><path d="M603.629,245.886l1185.62,-4.977c-0,-0 31.558,32.808 33.025,48.215c1.468,15.407 -24.222,44.227 -24.222,44.227l-602.594,10.551l-678.307,0.889l86.474,-98.905Z" style="fill:#fff;"/><path d="M595.015,245.886c-0,0 995.994,-11.199 1175.72,0c78.155,4.87 33.025,98.016 33.025,98.016" style="fill:none;stroke:#646f53;stroke-width:20.83px;"/><path d="M612.192,162.93c0,-0 20.488,-42.302 37.626,-42.669c195.606,-4.185 934.876,-0.403 1142.77,5.72c63.926,1.883 134.268,66.266 135.456,127.298" style="fill:none;stroke:#646f53;stroke-width:20.83px;"/><path d="M1929.18,504.585l-0,1083.66c-0,-0 28.354,152.042 -149.648,152.042l-1217.83,-0c-178.002,-0 -242.533,25.96 -242.533,-152.042l5.161,-1001.09c-0,-178.002 -25.774,-196.09 126.426,-193.51l1357.15,-0c37.396,-4.761 111.804,-7.161 120.136,-140.36c3.672,-58.689 1.131,251.306 1.131,251.306Z" style="fill:#d8dda8;stroke:#646f53;stroke-width:20.83px;"/></g></g><path d="M768.79,1367.92c55.067,11.211 93.857,49.383 86.567,85.19c-7.29,35.808 -57.916,55.777 -112.983,44.566c-55.068,-11.211 -93.857,-49.383 -86.567,-85.191c7.29,-35.807 57.916,-55.776 112.983,-44.565Z" style="fill:#de9564;stroke:#da835b;stroke-width:20.83px;"/><path d="M1482.47,1367.82c55.158,-10.756 105.618,9.631 112.611,45.497c6.994,35.866 -32.109,73.717 -87.267,84.473c-55.158,10.755 -105.618,-9.631 -112.611,-45.497c-6.994,-35.866 32.109,-73.717 87.267,-84.473Z" style="fill:#de9564;stroke:#da835b;stroke-width:20.83px;"/><path d="M1081.59,1496.43c0,-0 47.511,10.006 88.897,-9.362c30.54,-14.292 37.922,-58.275 37.922,-58.275" style="fill:none;stroke:#005f9e;stroke-width:20.83px;"/><path d="M772.768,1049.39c0,0 24.862,-46.756 92.875,-45.443c59.606,1.15 76.396,45.214 76.396,45.214" style="fill:none;stroke:#005f9e;stroke-width:20.83px;"/><path d="M1475.74,1049.39c-0,0 -24.862,-46.756 -92.875,-45.443c-59.606,1.15 -76.396,45.214 -76.396,45.214" style="fill:none;stroke:#005f9e;stroke-width:20.83px;"/><g><g><path d="M1477.42,1234.39c0,0 27.405,-5.968 38.402,-14.014c15.32,-11.209 22.351,-42.852 22.351,-42.852" style="fill:none;stroke:#005f9e;stroke-width:20.83px;"/><path d="M1416.66,1194.57c0,-0 27.405,-5.968 38.402,-14.015c15.32,-11.209 22.351,-42.852 22.351,-42.852" style="fill:none;stroke:#005f9e;stroke-width:20.83px;"/><path d="M1351.71,1194.57c0,-0 27.405,-5.968 38.402,-14.015c15.32,-11.209 22.352,-42.852 22.352,-42.852" style="fill:none;stroke:#005f9e;stroke-width:20.83px;"/></g><circle cx="1374.25" cy="1263.42" r="103.171" style="fill:#006cab;stroke:#005f9e;stroke-width:20.83px;"/><g><path d="M1403.93,1240.88c1.045,-2.625 11.687,-4.749 13.362,-2.908c1.675,1.84 -0.85,9.305 -4.949,10.338c-3.819,0.962 -9.188,-5.482 -8.413,-7.43Z" style="fill:#fff;"/><path d="M1390.46,1230.7c0,0 4.386,-9.198 16.687,-10.206c12.89,-1.055 19.389,5.171 19.389,5.171" style="fill:none;stroke:#fff;stroke-width:20.83px;"/></g></g><g><g><path d="M772.768,1234.39c0,0 -27.404,-5.968 -38.401,-14.014c-15.32,-11.209 -22.352,-42.852 -22.352,-42.852" style="fill:none;stroke:#005f9e;stroke-width:20.83px;"/><path d="M833.522,1194.57c-0,-0 -27.405,-5.968 -38.402,-14.015c-15.32,-11.209 -22.352,-42.852 -22.352,-42.852" style="fill:none;stroke:#005f9e;stroke-width:20.83px;"/><path d="M898.475,1194.57c0,-0 -27.404,-5.968 -38.402,-14.015c-15.32,-11.209 -22.351,-42.852 -22.351,-42.852" style="fill:none;stroke:#005f9e;stroke-width:20.83px;"/></g><circle cx="875.94" cy="1263.42" r="103.171" style="fill:#006cab;stroke:#005f9e;stroke-width:20.83px;"/><g><path d="M914.946,1236.65c-1.045,-2.624 -11.687,-4.748 -13.362,-2.908c-1.675,1.841 0.85,9.306 4.949,10.339c3.819,0.961 9.189,-5.482 8.413,-7.431Z" style="fill:#fff;"/><path d="M928.421,1226.48c0,0 -4.386,-9.198 -16.687,-10.206c-12.89,-1.056 -19.388,5.171 -19.388,5.171" style="fill:none;stroke:#fff;stroke-width:20.83px;"/></g></g><path d="M565.919,282.832l1246.3,-2.62" style="fill:none;stroke:#646f53;stroke-width:20.83px;"/><path d="M532.278,319.998l1279.94,-4.533" style="fill:none;stroke:#646f53;stroke-width:20.83px;"/><path d="M1300.28,1785.71c0,0 51.507,48.222 99.331,49.08c64.465,1.156 100.185,-45.88 100.185,-45.88" style="fill:none;stroke:#005f9e;stroke-width:20.83px;"/><path d="M990.373,1802.48c-0,0 58.978,38.729 106.247,31.416c63.718,-9.858 90.89,-62.298 90.89,-62.298" style="fill:none;stroke:#005f9e;stroke-width:20.83px;"/><ellipse cx="1396.2" cy="1226.6" rx="5.74" ry="6.223" style="fill:#fff;"/><path d="M1187.23,1743.84c-0,-0 -27.849,135.912 -60.697,187.687c-31.261,49.273 -161.25,119.411 -161.25,119.411c-0,-0 99.105,91.33 183.58,79.519c48.2,-6.739 93.01,-25.638 149.184,-16.177c42.841,7.216 75.202,-65.647 71.801,-99.464c-6.154,-61.199 -79.468,-274.527 -79.468,-274.527l-103.15,3.551Z" style="fill:#006cab;stroke:#005f9e;stroke-width:20.83px;"/></g></svg>